<svg width="86" height="87" viewBox="0 0 86 87" fill="none" xmlns="http://www.w3.org/2000/svg">
    <rect width="86" height="87" rx="43" fill="#46BD61" fill-opacity=".12"/>
    <g clip-path="url(#a)">
        <path d="M51.085 24.33H35.21a4.19 4.19 0 0 0-4.175 4.177v32.581a4.189 4.189 0 0 0 4.175 4.178h15.875a4.188 4.188 0 0 0 4.175-4.178v-32.58a4.189 4.189 0 0 0-4.175-4.179zM43.023 63.05a2.09 2.09 0 0 1 0-4.178 2.068 2.068 0 0 1 2.088 2.09 2.094 2.094 0 0 1-2.088 2.088zm9.554-5.722H33.719V29.103h18.857l.001 28.226z" fill="#41AA28"/>
        <path fill-rule="evenodd" clip-rule="evenodd" d="M36.635 40.499c.909 2.124 2.145 3.1 3.644 3.16a21.01 21.01 0 0 1-7.5 3.483 23.85 23.85 0 0 1-4.774-.948 12.336 12.336 0 0 0 8.63-5.7v.005z" fill="#81211C"/>
        <path d="M32.782 47.169a24.34 24.34 0 0 1-4.777-.948v-.051a14.18 14.18 0 0 0 5.068-1.987 11.568 11.568 0 0 0 3.545-3.7l.026-.041.019.046c.345.893.89 1.695 1.592 2.345.565.49 1.28.772 2.028.8l.014.046a21.056 21.056 0 0 1-7.507 3.488l-.008.002zm-4.666-.97c1.52.462 3.08.77 4.661.92a21.014 21.014 0 0 0 7.43-3.437 3.307 3.307 0 0 1-1.987-.808 6.253 6.253 0 0 1-1.59-2.32 11.565 11.565 0 0 1-3.536 3.67 14.146 14.146 0 0 1-4.979 1.976h.001z" fill="#CC8B5D"/>
        <path fill-rule="evenodd" clip-rule="evenodd" d="m46.812 35.023 10.953 5.532c-5.578 7.338-14.985 7.531-25 6.581a19.722 19.722 0 0 0 14.049-12.113h-.002z" fill="#EB2026"/>
        <path d="M40.128 47.566h-.017c-2.112 0-4.447-.13-7.35-.4v-.051a20.181 20.181 0 0 0 8.507-4.281 21.215 21.215 0 0 0 5.525-7.817l.01-.024.024.012 10.98 5.544-.019.024a17.083 17.083 0 0 1-10.85 6.41c-2.246.415-4.527.61-6.81.583zm-7.213-.44c2.831.265 5.123.39 7.2.39h.017c2.28.026 4.558-.171 6.8-.587a17.044 17.044 0 0 0 10.8-6.367l-10.9-5.5a21.26 21.26 0 0 1-5.527 7.81 20.21 20.21 0 0 1-8.391 4.254h.001z" fill="#CC8B5D"/>
        <path d="M48.68 21.454a6.228 6.228 0 1 1 6.227-6.227 6.234 6.234 0 0 1-6.227 6.227zm0-10.177a3.948 3.948 0 1 0 3.949 3.949 3.954 3.954 0 0 0-3.949-3.948v-.001z" fill="#43B02A"/>
        <path d="M43.44 26.77a6.227 6.227 0 1 1 0-12.454 1.139 1.139 0 1 1 0 2.278 3.949 3.949 0 1 0 3.947 3.949 1.14 1.14 0 0 1 2.28 0 6.236 6.236 0 0 1-6.227 6.227z" fill="#43B02A"/>
        <path d="M43.441 24.495a3.95 3.95 0 0 1-.811-7.815 6.239 6.239 0 0 0 4.683 4.62 3.957 3.957 0 0 1-3.872 3.195zm5.239-5.318a3.948 3.948 0 1 1 3.949-3.947 3.953 3.953 0 0 1-3.949 3.944v.003z" fill="#fff"/>
    </g>
    <defs>
        <clipPath id="a">
            <path fill="#fff" transform="translate(28 9)" d="M0 0h29.803v56.266H0z"/>
        </clipPath>
    </defs>
</svg>
