<svg width="86" height="87" viewBox="0 0 86 87" fill="none" xmlns="http://www.w3.org/2000/svg">
    <rect width="86" height="87" rx="43" fill="#46BD61" fill-opacity=".12"/>
    <g clip-path="url(#a)">
        <path d="M42.588 22a21.59 21.59 0 1 0 21.591 21.588A21.613 21.613 0 0 0 42.588 22zm14.686 8.523a35.847 35.847 0 0 1-5.683 1.857 26.166 26.166 0 0 0-6.047-8.238 19.654 19.654 0 0 1 11.73 6.381zM41.63 42.63h-8.565c.099-2.753.661-5.47 1.663-8.037 2.275.443 4.583.693 6.9.747l.002 7.29zm0 1.919v7.3c-2.317.05-4.625.3-6.9.742a24.533 24.533 0 0 1-1.663-8.037l8.563-.005zm1.919 0h8.561a24.464 24.464 0 0 1-1.66 8.037 40.98 40.98 0 0 0-6.9-.742l-.001-7.295zm0-1.919v-7.29a41.013 41.013 0 0 0 6.9-.747 24.45 24.45 0 0 1 1.66 8.037h-8.56zm0-9.212V24.95a24.346 24.346 0 0 1 6.113 7.841c-2.018.37-4.062.58-6.113.627zm-1.919-8.47v8.47a39.106 39.106 0 0 1-6.113-.629 24.346 24.346 0 0 1 6.113-7.839v-.002zM31.145 42.63h-8.2a19.56 19.56 0 0 1 3.713-10.558 37.407 37.407 0 0 0 6.171 2.093 26.485 26.485 0 0 0-1.684 8.465zm0 1.919a26.472 26.472 0 0 0 1.683 8.462 37.464 37.464 0 0 0-6.171 2.1 19.567 19.567 0 0 1-3.713-10.558l8.201-.004zm10.485 9.212v8.467a24.309 24.309 0 0 1-6.113-7.841 38.935 38.935 0 0 1 6.113-.626zm1.919 8.467v-8.467c2.05.05 4.095.259 6.113.626a24.342 24.342 0 0 1-6.113 7.841zM54.031 44.55h8.2a19.549 19.549 0 0 1-3.715 10.558 37.291 37.291 0 0 0-6.168-2.1 26.538 26.538 0 0 0 1.683-8.458zm0-1.919a26.54 26.54 0 0 0-1.68-8.465 37.137 37.137 0 0 0 6.168-2.093 19.54 19.54 0 0 1 3.715 10.558h-8.203zm-14.4-18.489a26.14 26.14 0 0 0-6.047 8.238 35.929 35.929 0 0 1-5.683-1.857 19.648 19.648 0 0 1 11.734-6.382l-.004.001zM27.91 56.656c1.839-.778 3.74-1.4 5.683-1.859a26.138 26.138 0 0 0 6.047 8.238 19.643 19.643 0 0 1-11.73-6.379zm17.639 6.379a26.126 26.126 0 0 0 6.047-8.236 35.498 35.498 0 0 1 5.683 1.857 19.65 19.65 0 0 1-11.735 6.38l.005-.001z" fill="#41AA28"/>
        <path fill-rule="evenodd" clip-rule="evenodd" d="M50.988 39.277c.951 2.221 2.244 3.242 3.811 3.305a21.972 21.972 0 0 1-7.843 3.643 24.946 24.946 0 0 1-4.993-.991 12.9 12.9 0 0 0 9.026-5.957h-.001z" fill="#81211C"/>
        <path d="M46.958 46.252h-.005a25.44 25.44 0 0 1-5-.991v-.053a14.798 14.798 0 0 0 5.3-2.078 12.078 12.078 0 0 0 3.71-3.869l.025-.043.023.048c.36.934.93 1.774 1.665 2.453.59.513 1.34.808 2.121.838l.015.048a22.034 22.034 0 0 1-7.853 3.647h-.001zm-4.88-1.014c1.589.482 3.222.804 4.875.961a22 22 0 0 0 7.77-3.595 3.473 3.473 0 0 1-2.08-.845 6.566 6.566 0 0 1-1.66-2.425 12.1 12.1 0 0 1-3.7 3.839 14.797 14.797 0 0 1-5.205 2.066v-.001z" fill="#CC8B5D"/>
        <path fill-rule="evenodd" clip-rule="evenodd" d="m61.631 33.55 11.456 5.785c-5.833 7.675-15.672 7.876-26.149 6.882A20.626 20.626 0 0 0 61.631 33.55z" fill="#EB2026"/>
        <path d="M54.641 46.668h-.018c-2.209 0-4.651-.136-7.687-.423v-.053a21.108 21.108 0 0 0 8.9-4.478 22.189 22.189 0 0 0 5.778-8.175l.01-.025.025.013 11.483 5.8-.02.025a17.866 17.866 0 0 1-11.348 6.7 36.838 36.838 0 0 1-7.123.616zm-7.544-.46c2.961.277 5.358.408 7.526.408h.018a36.717 36.717 0 0 0 7.109-.614 17.826 17.826 0 0 0 11.3-6.658l-11.4-5.756a22.234 22.234 0 0 1-5.781 8.168 21.137 21.137 0 0 1-8.772 4.451v.001z" fill="#CC8B5D"/>
    </g>
    <defs>
        <clipPath id="a">
            <path fill="#fff" transform="translate(21 22)" d="M0 0h52.127v43.179H0z"/>
        </clipPath>
    </defs>
</svg>
